<?xml version="1.0" encoding="UTF-8"?>
<svg xmlns="http://www.w3.org/2000/svg" xmlns:xlink="http://www.w3.org/1999/xlink" width="32px" height="32px" viewBox="0 0 32 32" version="1.1">
<g id="surface1">
<path style=" stroke:none;fill-rule:nonzero;fill:rgb(100%,100%,100%);fill-opacity:1;" d="M 2.679688 7.910156 L 7.429688 7.910156 L 7.429688 13.09375 L 2.679688 13.09375 Z M 2.679688 7.910156 "/>
<path style=" stroke:none;fill-rule:nonzero;fill:rgb(100%,100%,100%);fill-opacity:1;" d="M 2.679688 13.574219 L 7.429688 13.574219 L 7.429688 18.535156 L 2.679688 18.535156 Z M 2.679688 13.574219 "/>
<path style=" stroke:none;fill-rule:nonzero;fill:rgb(100%,100%,100%);fill-opacity:1;" d="M 2.679688 24.394531 L 7.429688 24.394531 L 7.429688 29.363281 L 2.679688 29.363281 Z M 2.679688 24.394531 "/>
<path style=" stroke:none;fill-rule:nonzero;fill:rgb(100%,100%,100%);fill-opacity:1;" d="M 2.679688 19.015625 L 7.429688 19.015625 L 7.429688 23.914062 L 2.679688 23.914062 Z M 2.679688 19.015625 "/>
<path style=" stroke:none;fill-rule:nonzero;fill:rgb(100%,100%,100%);fill-opacity:1;" d="M 7.910156 24.394531 L 10.023438 24.394531 L 10.023438 26.535156 L 7.910156 26.535156 Z M 7.910156 24.394531 "/>
<path style=" stroke:none;fill-rule:nonzero;fill:rgb(100%,100%,100%);fill-opacity:1;" d="M 4.984375 5.957031 L 6.054688 4.886719 L 6.132812 4.445312 L 5.917969 4.234375 L 5.53125 4.265625 L 5.15625 4.640625 C 5.0625 4.734375 4.910156 4.734375 4.816406 4.640625 L 4.425781 4.246094 L 4.054688 4.230469 L 3.855469 4.429688 L 3.863281 4.832031 Z M 4.984375 5.957031 "/>
<path style=" stroke:none;fill-rule:nonzero;fill:rgb(100%,100%,100%);fill-opacity:1;" d="M 7.910156 27.011719 L 10.023438 27.011719 L 10.023438 29.363281 L 7.910156 29.363281 Z M 7.910156 27.011719 "/>
<path style=" stroke:none;fill-rule:nonzero;fill:rgb(100%,100%,100%);fill-opacity:1;" d="M 7.910156 10.742188 L 10.023438 10.742188 L 10.023438 13.09375 L 7.910156 13.09375 Z M 7.910156 10.742188 "/>
<path style=" stroke:none;fill-rule:nonzero;fill:rgb(100%,100%,100%);fill-opacity:1;" d="M 2.679688 7.429688 L 7.429688 7.429688 L 7.429688 2.644531 L 2.679688 2.644531 Z M 3.441406 4.164062 L 3.792969 3.816406 C 3.839844 3.765625 3.90625 3.738281 3.972656 3.746094 L 4.539062 3.773438 C 4.601562 3.777344 4.65625 3.800781 4.699219 3.84375 L 4.984375 4.128906 L 5.253906 3.863281 C 5.292969 3.824219 5.34375 3.800781 5.402344 3.792969 L 5.992188 3.746094 C 6.0625 3.738281 6.128906 3.765625 6.179688 3.816406 L 6.558594 4.191406 C 6.613281 4.246094 6.640625 4.324219 6.625 4.402344 L 6.515625 5.042969 C 6.507812 5.09375 6.484375 5.136719 6.449219 5.171875 L 5.160156 6.460938 C 5.113281 6.507812 5.054688 6.53125 4.992188 6.53125 C 4.972656 6.53125 4.957031 6.53125 4.941406 6.527344 C 4.894531 6.519531 4.847656 6.496094 4.8125 6.460938 L 3.453125 5.105469 C 3.410156 5.058594 3.382812 5 3.382812 4.9375 L 3.371094 4.335938 C 3.371094 4.273438 3.398438 4.210938 3.441406 4.164062 Z M 3.441406 4.164062 "/>
<path style=" stroke:none;fill-rule:nonzero;fill:rgb(100%,100%,100%);fill-opacity:1;" d="M 13.335938 2.644531 L 18.296875 2.644531 L 18.296875 7.429688 L 13.335938 7.429688 Z M 13.335938 2.644531 "/>
<path style=" stroke:none;fill-rule:nonzero;fill:rgb(100%,100%,100%);fill-opacity:1;" d="M 7.910156 21.570312 L 10.023438 21.570312 L 10.023438 23.914062 L 7.910156 23.914062 Z M 7.910156 21.570312 "/>
<path style=" stroke:none;fill-rule:nonzero;fill:rgb(100%,100%,100%);fill-opacity:1;" d="M 18.777344 2.644531 L 23.675781 2.644531 L 23.675781 7.429688 L 18.777344 7.429688 Z M 18.777344 2.644531 "/>
<path style=" stroke:none;fill-rule:nonzero;fill:rgb(100%,100%,100%);fill-opacity:1;" d="M 7.910156 7.910156 L 10.023438 7.910156 L 10.023438 10.261719 L 7.910156 10.261719 Z M 7.910156 7.910156 "/>
<path style=" stroke:none;fill-rule:nonzero;fill:rgb(100%,100%,100%);fill-opacity:1;" d="M 24.15625 7.910156 L 26.296875 7.910156 L 26.296875 10.261719 L 24.15625 10.261719 Z M 24.15625 7.910156 "/>
<path style=" stroke:none;fill-rule:nonzero;fill:rgb(100%,100%,100%);fill-opacity:1;" d="M 18.777344 7.910156 L 20.851562 7.910156 L 20.851562 10.261719 L 18.777344 10.261719 Z M 18.777344 7.910156 "/>
<path style=" stroke:none;fill-rule:nonzero;fill:rgb(100%,100%,100%);fill-opacity:1;" d="M 7.910156 2.644531 L 12.855469 2.644531 L 12.855469 7.429688 L 7.910156 7.429688 Z M 7.910156 2.644531 "/>
<path style=" stroke:none;fill-rule:nonzero;fill:rgb(100%,100%,100%);fill-opacity:1;" d="M 16.160156 7.910156 L 18.296875 7.910156 L 18.296875 10.261719 L 16.160156 10.261719 Z M 16.160156 7.910156 "/>
<path style=" stroke:none;fill-rule:nonzero;fill:rgb(100%,100%,100%);fill-opacity:1;" d="M 10.503906 7.910156 L 12.855469 7.910156 L 12.855469 10.261719 L 10.503906 10.261719 Z M 10.503906 7.910156 "/>
<path style=" stroke:none;fill-rule:nonzero;fill:rgb(100%,100%,100%);fill-opacity:1;" d="M 13.335938 7.910156 L 15.679688 7.910156 L 15.679688 10.261719 L 13.335938 10.261719 Z M 13.335938 7.910156 "/>
<path style=" stroke:none;fill-rule:nonzero;fill:rgb(100%,100%,100%);fill-opacity:1;" d="M 21.332031 7.910156 L 23.675781 7.910156 L 23.675781 10.261719 L 21.332031 10.261719 Z M 21.332031 7.910156 "/>
<path style=" stroke:none;fill-rule:nonzero;fill:rgb(100%,100%,100%);fill-opacity:1;" d="M 21.074219 13.617188 L 18.734375 15.957031 C 18.683594 16.007812 18.613281 16.03125 18.542969 16.023438 C 18.472656 16.03125 18.402344 16.007812 18.351562 15.957031 L 16.011719 13.617188 L 13.199219 13.476562 L 10.578125 15.199219 L 10.535156 18.125 L 18.542969 25.097656 L 26.347656 18.125 L 26.351562 15.195312 L 23.882812 13.476562 Z M 21.074219 13.617188 "/>
<path style=" stroke:none;fill-rule:nonzero;fill:rgb(100%,100%,100%);fill-opacity:1;" d="M 26.777344 21.570312 L 29.296875 21.570312 L 29.296875 23.914062 L 26.777344 23.914062 Z M 26.777344 21.570312 "/>
<path style=" stroke:none;fill-rule:nonzero;fill:rgb(100%,100%,100%);fill-opacity:1;" d="M 26.777344 24.394531 L 29.296875 24.394531 L 29.296875 26.535156 L 26.777344 26.535156 Z M 26.777344 24.394531 "/>
<path style=" stroke:none;fill-rule:nonzero;fill:rgb(100%,100%,100%);fill-opacity:1;" d="M 26.777344 13.777344 C 26.777344 13.910156 26.667969 14.015625 26.535156 14.015625 C 26.402344 14.015625 26.296875 13.910156 26.296875 13.777344 L 26.296875 13.574219 L 25.679688 13.574219 C 25.546875 13.574219 25.441406 13.464844 25.441406 13.332031 C 25.441406 13.199219 25.546875 13.09375 25.679688 13.09375 L 26.296875 13.09375 L 26.296875 10.742188 L 24.15625 10.742188 L 24.15625 12.132812 C 24.15625 12.265625 24.050781 12.371094 23.917969 12.371094 C 23.785156 12.371094 23.675781 12.265625 23.675781 12.132812 L 23.675781 10.742188 L 21.332031 10.742188 L 21.332031 12.34375 C 21.332031 12.476562 21.226562 12.585938 21.09375 12.585938 C 20.960938 12.585938 20.851562 12.476562 20.851562 12.34375 L 20.851562 10.742188 L 18.777344 10.742188 L 18.777344 14.378906 C 18.777344 14.511719 18.667969 14.621094 18.539062 14.621094 C 18.40625 14.621094 18.296875 14.511719 18.296875 14.378906 L 18.296875 10.742188 L 16.160156 10.742188 L 16.160156 12.132812 C 16.160156 12.265625 16.050781 12.371094 15.917969 12.371094 C 15.785156 12.371094 15.679688 12.265625 15.679688 12.132812 L 15.679688 10.742188 L 13.335938 10.742188 L 13.335938 12.132812 C 13.335938 12.265625 13.226562 12.371094 13.09375 12.371094 C 12.960938 12.371094 12.855469 12.265625 12.855469 12.132812 L 12.855469 10.742188 L 10.503906 10.742188 L 10.503906 13.09375 L 11.695312 13.09375 C 11.828125 13.09375 11.933594 13.199219 11.933594 13.332031 C 11.933594 13.464844 11.828125 13.574219 11.695312 13.574219 L 10.503906 13.574219 L 10.503906 13.777344 C 10.503906 13.910156 10.398438 14.015625 10.265625 14.015625 C 10.132812 14.015625 10.023438 13.910156 10.023438 13.777344 L 10.023438 13.574219 L 7.910156 13.574219 L 7.910156 15.917969 L 9.304688 15.917969 C 9.4375 15.917969 9.542969 16.023438 9.542969 16.15625 C 9.542969 16.289062 9.4375 16.398438 9.304688 16.398438 L 7.910156 16.398438 L 7.910156 18.535156 L 9.167969 18.535156 C 9.300781 18.535156 9.410156 18.640625 9.410156 18.773438 C 9.410156 18.90625 9.300781 19.015625 9.167969 19.015625 L 7.910156 19.015625 L 7.910156 21.089844 L 10.023438 21.089844 L 10.023438 19.632812 C 10.023438 19.5 10.132812 19.394531 10.265625 19.394531 C 10.398438 19.394531 10.503906 19.5 10.503906 19.632812 L 10.503906 21.089844 L 12.386719 21.089844 C 12.519531 21.089844 12.628906 21.199219 12.628906 21.332031 C 12.628906 21.464844 12.519531 21.570312 12.386719 21.570312 L 10.503906 21.570312 L 10.503906 23.914062 L 12.855469 23.914062 L 12.855469 22.125 C 12.855469 21.992188 12.960938 21.886719 13.09375 21.886719 C 13.226562 21.886719 13.335938 21.992188 13.335938 22.125 L 13.335938 23.914062 L 15.71875 23.914062 C 15.851562 23.914062 15.960938 24.023438 15.960938 24.15625 C 15.960938 24.289062 15.851562 24.394531 15.71875 24.394531 L 13.335938 24.394531 L 13.335938 26.535156 L 15.679688 26.535156 L 15.679688 25.128906 C 15.679688 24.996094 15.785156 24.890625 15.917969 24.890625 C 16.050781 24.890625 16.160156 24.996094 16.160156 25.128906 L 16.160156 26.535156 L 18.296875 26.535156 L 18.296875 26.300781 C 18.296875 26.167969 18.40625 26.0625 18.539062 26.0625 C 18.667969 26.0625 18.777344 26.167969 18.777344 26.300781 L 18.777344 26.535156 L 20.851562 26.535156 L 20.851562 25.117188 C 20.851562 24.984375 20.960938 24.878906 21.09375 24.878906 C 21.226562 24.878906 21.332031 24.984375 21.332031 25.117188 L 21.332031 26.535156 L 23.675781 26.535156 L 23.675781 24.394531 L 21.09375 24.394531 C 20.960938 24.394531 20.851562 24.289062 20.851562 24.15625 C 20.851562 24.023438 20.960938 23.914062 21.09375 23.914062 L 23.675781 23.914062 L 23.675781 22.339844 C 23.675781 22.207031 23.785156 22.097656 23.917969 22.097656 C 24.050781 22.097656 24.15625 22.207031 24.15625 22.339844 L 24.15625 23.914062 L 26.296875 23.914062 L 26.296875 21.570312 L 24.351562 21.570312 C 24.21875 21.570312 24.109375 21.464844 24.109375 21.332031 C 24.109375 21.199219 24.21875 21.089844 24.351562 21.089844 L 26.296875 21.089844 L 26.296875 19.476562 C 26.296875 19.34375 26.402344 19.238281 26.535156 19.238281 C 26.667969 19.238281 26.777344 19.34375 26.777344 19.476562 L 26.777344 21.089844 L 29.296875 21.089844 L 29.296875 19.015625 L 27.4375 19.015625 C 27.304688 19.015625 27.195312 18.90625 27.195312 18.773438 C 27.195312 18.640625 27.304688 18.535156 27.4375 18.535156 L 29.296875 18.535156 L 29.296875 16.398438 L 27.4375 16.398438 C 27.304688 16.398438 27.195312 16.289062 27.195312 16.15625 C 27.195312 16.023438 27.304688 15.917969 27.4375 15.917969 L 29.296875 15.917969 L 29.296875 13.574219 L 26.777344 13.574219 Z M 26.828125 18.230469 C 26.824219 18.300781 26.796875 18.367188 26.746094 18.410156 L 18.753906 25.550781 C 18.707031 25.589844 18.648438 25.613281 18.59375 25.613281 C 18.585938 25.613281 18.578125 25.609375 18.570312 25.609375 C 18.5625 25.609375 18.550781 25.609375 18.542969 25.609375 C 18.535156 25.609375 18.523438 25.609375 18.515625 25.609375 C 18.507812 25.609375 18.5 25.613281 18.492188 25.613281 C 18.4375 25.613281 18.378906 25.59375 18.335938 25.550781 L 10.132812 18.414062 C 10.082031 18.367188 10.050781 18.300781 10.050781 18.226562 L 10.097656 15.066406 C 10.101562 14.984375 10.140625 14.910156 10.207031 14.867188 L 13 13.03125 C 13.042969 13.003906 13.09375 12.992188 13.144531 12.992188 L 16.125 13.140625 C 16.1875 13.144531 16.242188 13.167969 16.285156 13.210938 L 18.542969 15.46875 L 20.800781 13.210938 C 20.84375 13.167969 20.898438 13.144531 20.960938 13.140625 L 23.941406 12.992188 C 23.992188 12.992188 24.046875 13.007812 24.089844 13.035156 L 26.726562 14.871094 C 26.792969 14.917969 26.832031 14.992188 26.832031 15.070312 Z M 26.828125 18.230469 "/>
<path style=" stroke:none;fill-rule:nonzero;fill:rgb(100%,100%,100%);fill-opacity:1;" d="M 26.777344 27.011719 L 29.296875 27.011719 L 29.296875 29.363281 L 26.777344 29.363281 Z M 26.777344 27.011719 "/>
<path style=" stroke:none;fill-rule:nonzero;fill:rgb(100%,100%,100%);fill-opacity:1;" d="M 26.777344 10.742188 L 29.296875 10.742188 L 29.296875 13.09375 L 26.777344 13.09375 Z M 26.777344 10.742188 "/>
<path style=" stroke:none;fill-rule:nonzero;fill:rgb(100%,100%,100%);fill-opacity:1;" d="M 24.15625 2.644531 L 29.296875 2.644531 L 29.296875 7.429688 L 24.15625 7.429688 Z M 24.15625 2.644531 "/>
<path style=" stroke:none;fill-rule:nonzero;fill:rgb(100%,100%,100%);fill-opacity:1;" d="M 26.777344 7.910156 L 29.296875 7.910156 L 29.296875 10.261719 L 26.777344 10.261719 Z M 26.777344 7.910156 "/>
<path style=" stroke:none;fill-rule:nonzero;fill:rgb(100%,100%,100%);fill-opacity:1;" d="M 16.160156 27.011719 L 18.296875 27.011719 L 18.296875 29.363281 L 16.160156 29.363281 Z M 16.160156 27.011719 "/>
<path style=" stroke:none;fill-rule:nonzero;fill:rgb(100%,100%,100%);fill-opacity:1;" d="M 18.777344 27.011719 L 20.851562 27.011719 L 20.851562 29.363281 L 18.777344 29.363281 Z M 18.777344 27.011719 "/>
<path style=" stroke:none;fill-rule:nonzero;fill:rgb(100%,100%,100%);fill-opacity:1;" d="M 10.503906 27.011719 L 12.855469 27.011719 L 12.855469 29.363281 L 10.503906 29.363281 Z M 10.503906 27.011719 "/>
<path style=" stroke:none;fill-rule:nonzero;fill:rgb(100%,100%,100%);fill-opacity:1;" d="M 13.335938 27.011719 L 15.679688 27.011719 L 15.679688 29.363281 L 13.335938 29.363281 Z M 13.335938 27.011719 "/>
<path style=" stroke:none;fill-rule:nonzero;fill:rgb(100%,100%,100%);fill-opacity:1;" d="M 10.503906 24.394531 L 12.855469 24.394531 L 12.855469 26.535156 L 10.503906 26.535156 Z M 10.503906 24.394531 "/>
<path style=" stroke:none;fill-rule:nonzero;fill:rgb(100%,100%,100%);fill-opacity:1;" d="M 24.15625 27.011719 L 26.296875 27.011719 L 26.296875 29.363281 L 24.15625 29.363281 Z M 24.15625 27.011719 "/>
<path style=" stroke:none;fill-rule:nonzero;fill:rgb(100%,100%,100%);fill-opacity:1;" d="M 21.332031 27.011719 L 23.675781 27.011719 L 23.675781 29.363281 L 21.332031 29.363281 Z M 21.332031 27.011719 "/>
<path style=" stroke:none;fill-rule:nonzero;fill:rgb(100%,100%,100%);fill-opacity:1;" d="M 24.15625 24.394531 L 26.296875 24.394531 L 26.296875 26.535156 L 24.15625 26.535156 Z M 24.15625 24.394531 "/>
<path style=" stroke:none;fill-rule:nonzero;fill:rgb(16.862745%,60.784314%,100%);fill-opacity:1;" d="M 21.652344 8.230469 L 23.996094 8.230469 L 23.996094 10.582031 L 21.652344 10.582031 Z M 21.652344 8.230469 "/>
<path style=" stroke:none;fill-rule:nonzero;fill:rgb(16.862745%,60.784314%,100%);fill-opacity:1;" d="M 27.097656 21.890625 L 29.617188 21.890625 L 29.617188 24.234375 L 27.097656 24.234375 Z M 27.097656 21.890625 "/>
<path style=" stroke:none;fill-rule:nonzero;fill:rgb(16.862745%,60.784314%,100%);fill-opacity:1;" d="M 24.476562 8.230469 L 26.617188 8.230469 L 26.617188 10.582031 L 24.476562 10.582031 Z M 24.476562 8.230469 "/>
<path style=" stroke:none;fill-rule:nonzero;fill:rgb(16.862745%,60.784314%,100%);fill-opacity:1;" d="M 27.097656 11.0625 L 29.617188 11.0625 L 29.617188 13.414062 L 27.097656 13.414062 Z M 27.097656 11.0625 "/>
<path style=" stroke:none;fill-rule:nonzero;fill:rgb(16.862745%,60.784314%,100%);fill-opacity:1;" d="M 8.230469 8.230469 L 10.34375 8.230469 L 10.34375 10.582031 L 8.230469 10.582031 Z M 8.230469 8.230469 "/>
<path style=" stroke:none;fill-rule:nonzero;fill:rgb(16.862745%,60.784314%,100%);fill-opacity:1;" d="M 19.097656 8.230469 L 21.171875 8.230469 L 21.171875 10.582031 L 19.097656 10.582031 Z M 19.097656 8.230469 "/>
<path style=" stroke:none;fill-rule:nonzero;fill:rgb(100%,28.627451%,57.647059%);fill-opacity:1;" d="M 18.894531 16.277344 C 18.84375 16.328125 18.773438 16.347656 18.703125 16.34375 C 18.632812 16.347656 18.5625 16.328125 18.511719 16.277344 C 18.511719 16.277344 16.742188 14.648438 15.890625 14.234375 C 15.039062 13.820312 12.917969 13.691406 11.464844 15.527344 C 10.71875 16.476562 11.171875 18.859375 11.171875 18.859375 L 18.703125 25.414062 L 26.507812 18.445312 L 26.511719 15.515625 L 25.40625 14.742188 C 24.523438 14.128906 23.84375 13.886719 22.386719 13.878906 C 20.933594 13.875 18.894531 16.277344 18.894531 16.277344 Z M 18.894531 16.277344 "/>
<path style=" stroke:none;fill-rule:nonzero;fill:rgb(16.862745%,60.784314%,100%);fill-opacity:1;" d="M 16.480469 8.230469 L 18.617188 8.230469 L 18.617188 10.582031 L 16.480469 10.582031 Z M 16.480469 8.230469 "/>
<path style=" stroke:none;fill-rule:nonzero;fill:rgb(16.862745%,60.784314%,100%);fill-opacity:1;" d="M 27.097656 8.230469 L 29.617188 8.230469 L 29.617188 10.582031 L 27.097656 10.582031 Z M 27.097656 8.230469 "/>
<path style=" stroke:none;fill-rule:nonzero;fill:rgb(16.862745%,60.784314%,100%);fill-opacity:1;" d="M 26.617188 24.234375 L 26.617188 21.890625 L 24.671875 21.890625 C 24.539062 21.890625 24.429688 21.785156 24.429688 21.652344 C 24.429688 21.519531 24.539062 21.410156 24.671875 21.410156 L 26.617188 21.410156 L 26.617188 19.796875 C 26.617188 19.664062 26.722656 19.558594 26.855469 19.558594 C 26.988281 19.558594 27.097656 19.664062 27.097656 19.796875 L 27.097656 21.410156 L 29.617188 21.410156 L 29.617188 19.335938 L 27.757812 19.335938 C 27.625 19.335938 27.515625 19.226562 27.515625 19.09375 C 27.515625 18.960938 27.625 18.855469 27.757812 18.855469 L 29.617188 18.855469 L 29.617188 16.714844 L 27.757812 16.714844 C 27.625 16.714844 27.515625 16.609375 27.515625 16.476562 C 27.515625 16.34375 27.625 16.238281 27.757812 16.238281 L 29.617188 16.238281 L 29.617188 13.890625 L 27.097656 13.890625 L 27.097656 14.097656 C 27.097656 14.226562 26.988281 14.335938 26.855469 14.335938 C 26.722656 14.335938 26.617188 14.226562 26.617188 14.097656 L 26.617188 13.890625 L 26 13.890625 C 25.867188 13.890625 25.761719 13.785156 25.761719 13.652344 C 25.761719 13.519531 25.867188 13.414062 26 13.414062 L 26.617188 13.414062 L 26.617188 11.0625 L 24.476562 11.0625 L 24.476562 12.453125 C 24.476562 12.585938 24.371094 12.691406 24.238281 12.691406 C 24.105469 12.691406 23.996094 12.585938 23.996094 12.453125 L 23.996094 11.0625 L 21.652344 11.0625 L 21.652344 12.664062 C 21.652344 12.796875 21.546875 12.90625 21.414062 12.90625 C 21.28125 12.90625 21.171875 12.796875 21.171875 12.664062 L 21.171875 11.0625 L 19.097656 11.0625 L 19.097656 14.699219 C 19.097656 14.832031 18.988281 14.9375 18.855469 14.9375 C 18.726562 14.9375 18.617188 14.832031 18.617188 14.699219 L 18.617188 11.0625 L 16.480469 11.0625 L 16.480469 12.453125 C 16.480469 12.585938 16.371094 12.691406 16.238281 12.691406 C 16.105469 12.691406 16 12.585938 16 12.453125 L 16 11.0625 L 13.65625 11.0625 L 13.65625 12.453125 C 13.65625 12.585938 13.546875 12.691406 13.414062 12.691406 C 13.28125 12.691406 13.175781 12.585938 13.175781 12.453125 L 13.175781 11.0625 L 10.824219 11.0625 L 10.824219 13.414062 L 12.015625 13.414062 C 12.148438 13.414062 12.253906 13.519531 12.253906 13.652344 C 12.253906 13.785156 12.148438 13.890625 12.015625 13.890625 L 10.824219 13.890625 L 10.824219 14.097656 C 10.824219 14.226562 10.71875 14.335938 10.585938 14.335938 C 10.453125 14.335938 10.34375 14.226562 10.34375 14.097656 L 10.34375 13.890625 L 8.230469 13.890625 L 8.230469 16.238281 L 9.625 16.238281 C 9.753906 16.238281 9.863281 16.34375 9.863281 16.476562 C 9.863281 16.609375 9.753906 16.714844 9.625 16.714844 L 8.230469 16.714844 L 8.230469 18.855469 L 9.488281 18.855469 C 9.621094 18.855469 9.730469 18.960938 9.730469 19.09375 C 9.730469 19.226562 9.621094 19.335938 9.488281 19.335938 L 8.230469 19.335938 L 8.230469 21.410156 L 10.34375 21.410156 L 10.34375 19.953125 C 10.34375 19.820312 10.453125 19.714844 10.585938 19.714844 C 10.71875 19.714844 10.824219 19.820312 10.824219 19.953125 L 10.824219 21.410156 L 12.707031 21.410156 C 12.839844 21.410156 12.949219 21.519531 12.949219 21.652344 C 12.949219 21.785156 12.839844 21.890625 12.707031 21.890625 L 10.824219 21.890625 L 10.824219 24.234375 L 13.175781 24.234375 L 13.175781 22.445312 C 13.175781 22.3125 13.28125 22.207031 13.414062 22.207031 C 13.546875 22.207031 13.65625 22.3125 13.65625 22.445312 L 13.65625 24.234375 L 16.039062 24.234375 C 16.171875 24.234375 16.28125 24.34375 16.28125 24.476562 C 16.28125 24.609375 16.171875 24.714844 16.039062 24.714844 L 13.65625 24.714844 L 13.65625 26.851562 L 16 26.851562 L 16 25.449219 C 16 25.316406 16.105469 25.210938 16.238281 25.210938 C 16.371094 25.210938 16.480469 25.316406 16.480469 25.449219 L 16.480469 26.851562 L 18.617188 26.851562 L 18.617188 26.621094 C 18.617188 26.488281 18.726562 26.382812 18.855469 26.382812 C 18.988281 26.382812 19.097656 26.488281 19.097656 26.621094 L 19.097656 26.851562 L 21.171875 26.851562 L 21.171875 25.4375 C 21.171875 25.304688 21.28125 25.199219 21.414062 25.199219 C 21.546875 25.199219 21.652344 25.304688 21.652344 25.4375 L 21.652344 26.851562 L 23.996094 26.851562 L 23.996094 24.714844 L 21.414062 24.714844 C 21.28125 24.714844 21.171875 24.609375 21.171875 24.476562 C 21.171875 24.34375 21.28125 24.234375 21.414062 24.234375 L 23.996094 24.234375 L 23.996094 22.660156 C 23.996094 22.527344 24.105469 22.417969 24.238281 22.417969 C 24.371094 22.417969 24.476562 22.527344 24.476562 22.660156 L 24.476562 24.234375 Z M 19.074219 25.871094 C 19.027344 25.910156 18.96875 25.929688 18.914062 25.929688 C 18.90625 25.929688 18.898438 25.929688 18.890625 25.929688 C 18.882812 25.929688 18.871094 25.929688 18.863281 25.929688 C 18.855469 25.929688 18.84375 25.929688 18.835938 25.929688 C 18.828125 25.929688 18.820312 25.929688 18.8125 25.929688 C 18.757812 25.929688 18.699219 25.910156 18.65625 25.871094 L 10.453125 18.734375 C 10.402344 18.6875 10.371094 18.617188 10.371094 18.546875 L 10.417969 15.386719 C 10.421875 15.304688 10.460938 15.230469 10.527344 15.1875 L 13.320312 13.351562 C 13.363281 13.324219 13.414062 13.308594 13.464844 13.3125 L 16.445312 13.460938 C 16.507812 13.464844 16.5625 13.488281 16.605469 13.53125 L 18.863281 15.789062 L 21.121094 13.53125 C 21.164062 13.488281 21.21875 13.464844 21.28125 13.460938 L 24.261719 13.3125 C 24.3125 13.3125 24.367188 13.324219 24.410156 13.355469 L 27.046875 15.191406 C 27.113281 15.238281 27.152344 15.308594 27.152344 15.390625 L 27.144531 18.550781 C 27.144531 18.621094 27.117188 18.6875 27.066406 18.730469 Z M 19.074219 25.871094 "/>
<path style=" stroke:none;fill-rule:nonzero;fill:rgb(16.862745%,60.784314%,100%);fill-opacity:1;" d="M 10.824219 8.230469 L 13.175781 8.230469 L 13.175781 10.582031 L 10.824219 10.582031 Z M 10.824219 8.230469 "/>
<path style=" stroke:none;fill-rule:nonzero;fill:rgb(16.862745%,60.784314%,100%);fill-opacity:1;" d="M 10.824219 24.714844 L 13.175781 24.714844 L 13.175781 26.851562 L 10.824219 26.851562 Z M 10.824219 24.714844 "/>
<path style=" stroke:none;fill-rule:nonzero;fill:rgb(16.862745%,60.784314%,100%);fill-opacity:1;" d="M 8.230469 11.0625 L 10.34375 11.0625 L 10.34375 13.414062 L 8.230469 13.414062 Z M 8.230469 11.0625 "/>
<path style=" stroke:none;fill-rule:nonzero;fill:rgb(16.862745%,60.784314%,100%);fill-opacity:1;" d="M 13.65625 8.230469 L 16 8.230469 L 16 10.582031 L 13.65625 10.582031 Z M 13.65625 8.230469 "/>
<path style=" stroke:none;fill-rule:nonzero;fill:rgb(100%,28.627451%,57.647059%);fill-opacity:1;" d="M 5.367188 5.894531 L 6.089844 5.054688 C 6.132812 5.003906 6.15625 4.945312 6.164062 4.882812 L 6.179688 4.6875 C 6.191406 4.589844 6.152344 4.492188 6.078125 4.429688 C 6.007812 4.371094 5.917969 4.34375 5.828125 4.359375 L 5.691406 4.378906 C 5.621094 4.390625 5.554688 4.429688 5.507812 4.484375 L 5.4375 4.566406 C 5.242188 4.796875 4.894531 4.820312 4.667969 4.625 L 4.566406 4.539062 C 4.511719 4.492188 4.4375 4.464844 4.359375 4.464844 L 4.246094 4.46875 C 4.160156 4.472656 4.078125 4.511719 4.023438 4.574219 L 4.007812 4.589844 C 3.953125 4.652344 3.929688 4.734375 3.9375 4.816406 L 3.949219 4.96875 C 3.957031 5.046875 3.996094 5.117188 4.054688 5.171875 L 4.9375 5.925781 C 5.0625 6.039062 5.257812 6.023438 5.367188 5.894531 Z M 5.367188 5.894531 "/>
<path style=" stroke:none;fill-rule:nonzero;fill:rgb(16.862745%,60.784314%,100%);fill-opacity:1;" d="M 27.097656 24.714844 L 29.617188 24.714844 L 29.617188 26.851562 L 27.097656 26.851562 Z M 27.097656 24.714844 "/>
<path style=" stroke:none;fill-rule:nonzero;fill:rgb(16.862745%,60.784314%,100%);fill-opacity:1;" d="M 24.476562 24.714844 L 26.617188 24.714844 L 26.617188 26.851562 L 24.476562 26.851562 Z M 24.476562 24.714844 "/>
<path style=" stroke:none;fill-rule:nonzero;fill:rgb(16.862745%,60.784314%,100%);fill-opacity:1;" d="M 24.476562 27.332031 L 26.617188 27.332031 L 26.617188 29.683594 L 24.476562 29.683594 Z M 24.476562 27.332031 "/>
<path style=" stroke:none;fill-rule:nonzero;fill:rgb(16.862745%,60.784314%,100%);fill-opacity:1;" d="M 27.097656 27.332031 L 29.617188 27.332031 L 29.617188 29.683594 L 27.097656 29.683594 Z M 27.097656 27.332031 "/>
<path style=" stroke:none;fill-rule:nonzero;fill:rgb(16.862745%,60.784314%,100%);fill-opacity:1;" d="M 8.230469 21.890625 L 10.34375 21.890625 L 10.34375 24.234375 L 8.230469 24.234375 Z M 8.230469 21.890625 "/>
<path style=" stroke:none;fill-rule:nonzero;fill:rgb(16.862745%,60.784314%,100%);fill-opacity:1;" d="M 8.230469 27.332031 L 10.34375 27.332031 L 10.34375 29.683594 L 8.230469 29.683594 Z M 8.230469 27.332031 "/>
<path style=" stroke:none;fill-rule:nonzero;fill:rgb(16.862745%,60.784314%,100%);fill-opacity:1;" d="M 8.230469 24.714844 L 10.34375 24.714844 L 10.34375 26.851562 L 8.230469 26.851562 Z M 8.230469 24.714844 "/>
<path style=" stroke:none;fill-rule:nonzero;fill:rgb(16.862745%,60.784314%,100%);fill-opacity:1;" d="M 21.652344 27.332031 L 23.996094 27.332031 L 23.996094 29.683594 L 21.652344 29.683594 Z M 21.652344 27.332031 "/>
<path style=" stroke:none;fill-rule:nonzero;fill:rgb(16.862745%,60.784314%,100%);fill-opacity:1;" d="M 10.824219 27.332031 L 13.175781 27.332031 L 13.175781 29.683594 L 10.824219 29.683594 Z M 10.824219 27.332031 "/>
<path style=" stroke:none;fill-rule:nonzero;fill:rgb(16.862745%,60.784314%,100%);fill-opacity:1;" d="M 19.097656 27.332031 L 21.171875 27.332031 L 21.171875 29.683594 L 19.097656 29.683594 Z M 19.097656 27.332031 "/>
<path style=" stroke:none;fill-rule:nonzero;fill:rgb(16.862745%,60.784314%,100%);fill-opacity:1;" d="M 13.65625 27.332031 L 16 27.332031 L 16 29.683594 L 13.65625 29.683594 Z M 13.65625 27.332031 "/>
<path style=" stroke:none;fill-rule:nonzero;fill:rgb(16.862745%,60.784314%,100%);fill-opacity:1;" d="M 16.480469 27.332031 L 18.617188 27.332031 L 18.617188 29.683594 L 16.480469 29.683594 Z M 16.480469 27.332031 "/>
<path style=" stroke:none;fill-rule:nonzero;fill:rgb(0%,0%,0%);fill-opacity:1;" d="M 29.796875 7.671875 C 29.796875 7.640625 29.789062 7.609375 29.777344 7.582031 L 29.777344 2.40625 C 29.777344 2.273438 29.671875 2.164062 29.539062 2.164062 L 2.4375 2.164062 C 2.304688 2.164062 2.199219 2.273438 2.199219 2.40625 L 2.199219 29.605469 C 2.199219 29.738281 2.304688 29.84375 2.4375 29.84375 L 29.539062 29.84375 C 29.671875 29.84375 29.777344 29.738281 29.777344 29.605469 L 29.777344 7.761719 C 29.789062 7.734375 29.796875 7.703125 29.796875 7.671875 Z M 29.296875 7.910156 L 29.296875 10.261719 L 26.777344 10.261719 L 26.777344 7.910156 Z M 23.917969 22.097656 C 23.785156 22.097656 23.675781 22.207031 23.675781 22.339844 L 23.675781 23.914062 L 21.09375 23.914062 C 20.960938 23.914062 20.851562 24.023438 20.851562 24.15625 C 20.851562 24.289062 20.960938 24.394531 21.09375 24.394531 L 23.675781 24.394531 L 23.675781 26.535156 L 21.332031 26.535156 L 21.332031 25.117188 C 21.332031 24.984375 21.226562 24.878906 21.09375 24.878906 C 20.960938 24.878906 20.851562 24.984375 20.851562 25.117188 L 20.851562 26.535156 L 18.777344 26.535156 L 18.777344 26.300781 C 18.777344 26.167969 18.667969 26.0625 18.539062 26.0625 C 18.40625 26.0625 18.296875 26.167969 18.296875 26.300781 L 18.296875 26.535156 L 16.160156 26.535156 L 16.160156 25.128906 C 16.160156 24.996094 16.050781 24.890625 15.917969 24.890625 C 15.785156 24.890625 15.679688 24.996094 15.679688 25.128906 L 15.679688 26.535156 L 13.335938 26.535156 L 13.335938 24.394531 L 15.71875 24.394531 C 15.851562 24.394531 15.960938 24.289062 15.960938 24.15625 C 15.960938 24.023438 15.851562 23.914062 15.71875 23.914062 L 13.335938 23.914062 L 13.335938 22.125 C 13.335938 21.992188 13.226562 21.886719 13.09375 21.886719 C 12.960938 21.886719 12.855469 21.992188 12.855469 22.125 L 12.855469 23.914062 L 10.503906 23.914062 L 10.503906 21.570312 L 12.386719 21.570312 C 12.519531 21.570312 12.628906 21.464844 12.628906 21.332031 C 12.628906 21.199219 12.519531 21.089844 12.386719 21.089844 L 10.503906 21.089844 L 10.503906 19.632812 C 10.503906 19.5 10.398438 19.394531 10.265625 19.394531 C 10.132812 19.394531 10.023438 19.5 10.023438 19.632812 L 10.023438 21.089844 L 7.910156 21.089844 L 7.910156 19.015625 L 9.167969 19.015625 C 9.300781 19.015625 9.410156 18.90625 9.410156 18.773438 C 9.410156 18.640625 9.300781 18.535156 9.167969 18.535156 L 7.910156 18.535156 L 7.910156 16.398438 L 9.304688 16.398438 C 9.4375 16.398438 9.542969 16.289062 9.542969 16.15625 C 9.542969 16.023438 9.4375 15.917969 9.304688 15.917969 L 7.910156 15.917969 L 7.910156 13.574219 L 10.023438 13.574219 L 10.023438 13.777344 C 10.023438 13.910156 10.132812 14.015625 10.265625 14.015625 C 10.398438 14.015625 10.503906 13.910156 10.503906 13.777344 L 10.503906 13.574219 L 11.695312 13.574219 C 11.828125 13.574219 11.933594 13.464844 11.933594 13.332031 C 11.933594 13.199219 11.828125 13.09375 11.695312 13.09375 L 10.503906 13.09375 L 10.503906 10.742188 L 12.855469 10.742188 L 12.855469 12.132812 C 12.855469 12.265625 12.960938 12.371094 13.09375 12.371094 C 13.226562 12.371094 13.335938 12.265625 13.335938 12.132812 L 13.335938 10.742188 L 15.679688 10.742188 L 15.679688 12.132812 C 15.679688 12.265625 15.785156 12.371094 15.917969 12.371094 C 16.050781 12.371094 16.160156 12.265625 16.160156 12.132812 L 16.160156 10.742188 L 18.296875 10.742188 L 18.296875 14.378906 C 18.296875 14.511719 18.40625 14.621094 18.539062 14.621094 C 18.667969 14.621094 18.777344 14.511719 18.777344 14.378906 L 18.777344 10.742188 L 20.851562 10.742188 L 20.851562 12.34375 C 20.851562 12.476562 20.960938 12.585938 21.09375 12.585938 C 21.226562 12.585938 21.332031 12.476562 21.332031 12.34375 L 21.332031 10.742188 L 23.675781 10.742188 L 23.675781 12.132812 C 23.675781 12.265625 23.785156 12.371094 23.917969 12.371094 C 24.050781 12.371094 24.15625 12.265625 24.15625 12.132812 L 24.15625 10.742188 L 26.296875 10.742188 L 26.296875 13.09375 L 25.679688 13.09375 C 25.546875 13.09375 25.441406 13.199219 25.441406 13.332031 C 25.441406 13.464844 25.546875 13.574219 25.679688 13.574219 L 26.296875 13.574219 L 26.296875 13.777344 C 26.296875 13.910156 26.402344 14.015625 26.535156 14.015625 C 26.667969 14.015625 26.777344 13.910156 26.777344 13.777344 L 26.777344 13.574219 L 29.296875 13.574219 L 29.296875 15.917969 L 27.4375 15.917969 C 27.304688 15.917969 27.195312 16.023438 27.195312 16.15625 C 27.195312 16.289062 27.304688 16.398438 27.4375 16.398438 L 29.296875 16.398438 L 29.296875 18.535156 L 27.4375 18.535156 C 27.304688 18.535156 27.195312 18.640625 27.195312 18.773438 C 27.195312 18.90625 27.304688 19.015625 27.4375 19.015625 L 29.296875 19.015625 L 29.296875 21.089844 L 26.777344 21.089844 L 26.777344 19.476562 C 26.777344 19.34375 26.667969 19.238281 26.535156 19.238281 C 26.402344 19.238281 26.296875 19.34375 26.296875 19.476562 L 26.296875 21.089844 L 24.351562 21.089844 C 24.21875 21.089844 24.109375 21.199219 24.109375 21.332031 C 24.109375 21.464844 24.21875 21.570312 24.351562 21.570312 L 26.296875 21.570312 L 26.296875 23.914062 L 24.15625 23.914062 L 24.15625 22.339844 C 24.15625 22.207031 24.050781 22.097656 23.917969 22.097656 Z M 12.855469 26.535156 L 10.503906 26.535156 L 10.503906 24.394531 L 12.855469 24.394531 Z M 2.679688 13.574219 L 7.429688 13.574219 L 7.429688 18.535156 L 2.679688 18.535156 Z M 7.910156 10.742188 L 10.023438 10.742188 L 10.023438 13.09375 L 7.910156 13.09375 Z M 12.855469 7.910156 L 12.855469 10.261719 L 10.503906 10.261719 L 10.503906 7.910156 Z M 18.296875 7.910156 L 18.296875 10.261719 L 16.160156 10.261719 L 16.160156 7.910156 Z M 18.777344 7.910156 L 20.851562 7.910156 L 20.851562 10.261719 L 18.777344 10.261719 Z M 15.679688 10.261719 L 13.335938 10.261719 L 13.335938 7.910156 L 15.679688 7.910156 Z M 26.777344 10.742188 L 29.296875 10.742188 L 29.296875 13.09375 L 26.777344 13.09375 Z M 26.777344 21.570312 L 29.296875 21.570312 L 29.296875 23.914062 L 26.777344 23.914062 Z M 26.296875 10.261719 L 24.15625 10.261719 L 24.15625 7.910156 L 26.296875 7.910156 Z M 23.675781 10.261719 L 21.332031 10.261719 L 21.332031 7.910156 L 23.675781 7.910156 Z M 18.777344 7.429688 L 18.777344 2.644531 L 23.675781 2.644531 L 23.675781 7.429688 Z M 18.296875 7.429688 L 13.335938 7.429688 L 13.335938 2.644531 L 18.296875 2.644531 Z M 12.855469 7.429688 L 7.910156 7.429688 L 7.910156 2.644531 L 12.855469 2.644531 Z M 10.023438 7.910156 L 10.023438 10.261719 L 7.910156 10.261719 L 7.910156 7.910156 Z M 7.429688 13.09375 L 2.679688 13.09375 L 2.679688 7.910156 L 7.429688 7.910156 Z M 2.679688 19.015625 L 7.429688 19.015625 L 7.429688 23.914062 L 2.679688 23.914062 Z M 7.910156 21.570312 L 10.023438 21.570312 L 10.023438 23.914062 L 7.910156 23.914062 Z M 10.023438 24.394531 L 10.023438 26.535156 L 7.910156 26.535156 L 7.910156 24.394531 Z M 7.910156 27.011719 L 10.023438 27.011719 L 10.023438 29.363281 L 7.910156 29.363281 Z M 10.503906 27.011719 L 12.855469 27.011719 L 12.855469 29.363281 L 10.503906 29.363281 Z M 13.335938 27.011719 L 15.679688 27.011719 L 15.679688 29.363281 L 13.335938 29.363281 Z M 16.160156 27.011719 L 18.296875 27.011719 L 18.296875 29.363281 L 16.160156 29.363281 Z M 18.777344 27.011719 L 20.851562 27.011719 L 20.851562 29.363281 L 18.777344 29.363281 Z M 21.332031 27.011719 L 23.675781 27.011719 L 23.675781 29.363281 L 21.332031 29.363281 Z M 24.15625 27.011719 L 26.296875 27.011719 L 26.296875 29.363281 L 24.15625 29.363281 Z M 24.15625 26.535156 L 24.15625 24.394531 L 26.296875 24.394531 L 26.296875 26.535156 Z M 26.777344 24.394531 L 29.296875 24.394531 L 29.296875 26.535156 L 26.777344 26.535156 Z M 29.296875 7.429688 L 24.15625 7.429688 L 24.15625 2.644531 L 29.296875 2.644531 Z M 7.429688 2.644531 L 7.429688 7.429688 L 2.679688 7.429688 L 2.679688 2.644531 Z M 2.679688 24.394531 L 7.429688 24.394531 L 7.429688 29.363281 L 2.679688 29.363281 Z M 26.777344 29.363281 L 26.777344 27.011719 L 29.296875 27.011719 L 29.296875 29.363281 Z M 26.777344 29.363281 "/>
<path style=" stroke:none;fill-rule:nonzero;fill:rgb(0%,0%,0%);fill-opacity:1;" d="M 26.828125 18.230469 L 26.832031 15.070312 C 26.832031 14.992188 26.792969 14.917969 26.726562 14.871094 L 24.089844 13.035156 C 24.046875 13.007812 23.992188 12.992188 23.941406 12.992188 L 20.960938 13.140625 C 20.898438 13.144531 20.84375 13.167969 20.800781 13.210938 L 18.542969 15.46875 L 16.285156 13.210938 C 16.242188 13.167969 16.1875 13.144531 16.125 13.140625 L 13.144531 12.992188 C 13.09375 12.992188 13.042969 13.003906 13 13.03125 L 10.207031 14.867188 C 10.140625 14.910156 10.101562 14.984375 10.097656 15.066406 L 10.050781 18.226562 C 10.050781 18.300781 10.082031 18.367188 10.132812 18.414062 L 18.335938 25.550781 C 18.378906 25.59375 18.4375 25.613281 18.492188 25.613281 C 18.5 25.613281 18.507812 25.609375 18.515625 25.609375 C 18.523438 25.609375 18.535156 25.609375 18.542969 25.609375 C 18.550781 25.609375 18.5625 25.609375 18.570312 25.609375 C 18.578125 25.609375 18.585938 25.613281 18.59375 25.613281 C 18.648438 25.613281 18.707031 25.589844 18.753906 25.550781 L 26.746094 18.410156 C 26.796875 18.367188 26.824219 18.300781 26.828125 18.230469 Z M 26.347656 18.125 L 18.542969 25.097656 L 10.535156 18.125 L 10.578125 15.199219 L 13.199219 13.476562 L 16.011719 13.617188 L 18.351562 15.957031 C 18.402344 16.007812 18.472656 16.03125 18.542969 16.023438 C 18.613281 16.03125 18.683594 16.007812 18.734375 15.957031 L 21.074219 13.617188 L 23.882812 13.476562 L 26.351562 15.195312 Z M 3.453125 5.105469 L 4.8125 6.460938 C 4.847656 6.496094 4.894531 6.519531 4.941406 6.527344 C 4.957031 6.53125 4.972656 6.53125 4.992188 6.53125 C 5.054688 6.53125 5.113281 6.507812 5.160156 6.460938 L 6.449219 5.171875 C 6.484375 5.136719 6.507812 5.09375 6.515625 5.042969 L 6.625 4.402344 C 6.640625 4.324219 6.613281 4.246094 6.558594 4.191406 L 6.179688 3.816406 C 6.128906 3.765625 6.0625 3.738281 5.992188 3.746094 L 5.402344 3.792969 C 5.34375 3.800781 5.292969 3.824219 5.253906 3.863281 L 4.984375 4.128906 L 4.699219 3.84375 C 4.65625 3.800781 4.601562 3.777344 4.539062 3.773438 L 3.972656 3.746094 C 3.90625 3.738281 3.839844 3.765625 3.792969 3.816406 L 3.441406 4.164062 C 3.398438 4.210938 3.371094 4.273438 3.371094 4.335938 L 3.382812 4.9375 C 3.382812 5 3.410156 5.058594 3.453125 5.105469 Z M 4.054688 4.230469 L 4.425781 4.246094 L 4.816406 4.640625 C 4.910156 4.734375 5.0625 4.734375 5.15625 4.640625 L 5.53125 4.265625 L 5.917969 4.234375 L 6.132812 4.445312 L 6.054688 4.886719 L 4.984375 5.957031 L 3.863281 4.832031 L 3.855469 4.429688 Z M 4.054688 4.230469 "/>
</g>
</svg>
