<?xml version="1.0" encoding="UTF-8"?>
<svg xmlns="http://www.w3.org/2000/svg" xmlns:xlink="http://www.w3.org/1999/xlink" width="30px" height="30px" viewBox="0 0 30 30" version="1.1">
<g id="surface1">
<path style=" stroke:none;fill-rule:evenodd;fill:#baa2b5;fill-opacity:1;" d="M 15.027344 1.253906 C 13.597656 1.242188 12.285156 2.050781 11.648438 3.328125 L 11.058594 4.507812 C 10.824219 4.59375 10.59375 4.691406 10.367188 4.792969 L 9.117188 4.375 C 7.761719 3.921875 6.261719 4.28125 5.257812 5.300781 C 4.269531 6.304688 3.929688 7.78125 4.378906 9.117188 L 4.792969 10.367188 C 4.691406 10.59375 4.59375 10.824219 4.503906 11.058594 L 3.328125 11.648438 C 2.050781 12.285156 1.242188 13.597656 1.253906 15.027344 C 1.261719 16.4375 2.066406 17.722656 3.324219 18.347656 L 4.507812 18.945312 C 4.597656 19.179688 4.691406 19.40625 4.792969 19.632812 L 4.378906 20.882812 C 3.925781 22.234375 4.28125 23.734375 5.300781 24.738281 C 6.304688 25.726562 7.78125 26.066406 9.117188 25.621094 L 10.367188 25.207031 C 10.59375 25.3125 10.824219 25.40625 11.058594 25.496094 L 11.648438 26.667969 C 12.285156 27.945312 13.597656 28.757812 15.027344 28.746094 C 16.4375 28.734375 17.722656 27.929688 18.351562 26.667969 L 18.941406 25.492188 C 19.175781 25.40625 19.410156 25.3125 19.636719 25.207031 L 20.882812 25.621094 C 22.21875 26.066406 23.695312 25.726562 24.699219 24.738281 C 25.71875 23.734375 26.074219 22.234375 25.621094 20.882812 L 25.207031 19.632812 C 25.3125 19.402344 25.40625 19.171875 25.496094 18.941406 L 26.671875 18.347656 C 27.929688 17.722656 28.738281 16.4375 28.746094 15.027344 C 28.757812 13.597656 27.949219 12.285156 26.671875 11.648438 L 25.492188 11.058594 C 25.402344 10.824219 25.308594 10.589844 25.207031 10.363281 L 25.621094 9.117188 L 25.621094 9.113281 C 26.066406 7.78125 25.726562 6.304688 24.742188 5.300781 C 23.738281 4.28125 22.238281 3.921875 20.882812 4.375 L 19.632812 4.792969 C 19.402344 4.6875 19.171875 4.59375 18.941406 4.503906 L 18.351562 3.328125 C 17.722656 2.070312 16.4375 1.261719 15.027344 1.253906 Z M 15.007812 3.753906 C 15.480469 3.757812 15.90625 4.023438 16.117188 4.445312 L 16.910156 6.03125 C 17.058594 6.335938 17.324219 6.5625 17.644531 6.664062 C 18.117188 6.816406 18.574219 7.003906 19.011719 7.230469 C 19.3125 7.386719 19.664062 7.414062 19.984375 7.308594 L 21.671875 6.746094 C 21.671875 6.746094 21.671875 6.746094 21.675781 6.746094 C 22.128906 6.597656 22.625 6.714844 22.957031 7.054688 C 23.289062 7.386719 23.398438 7.875 23.25 8.324219 C 23.25 8.324219 23.25 8.328125 23.25 8.328125 L 22.691406 10.007812 C 22.585938 10.328125 22.609375 10.671875 22.761719 10.972656 C 22.988281 11.410156 23.175781 11.871094 23.324219 12.339844 C 23.425781 12.664062 23.652344 12.933594 23.957031 13.085938 L 25.554688 13.882812 C 25.984375 14.097656 26.25 14.53125 26.246094 15.007812 C 26.242188 15.476562 25.976562 15.902344 25.554688 16.113281 C 25.554688 16.113281 25.550781 16.113281 25.550781 16.113281 L 23.964844 16.910156 C 23.664062 17.058594 23.4375 17.324219 23.335938 17.644531 C 23.183594 18.117188 22.996094 18.574219 22.765625 19.011719 C 22.609375 19.3125 22.582031 19.664062 22.6875 19.984375 L 23.25 21.671875 C 23.402344 22.128906 23.285156 22.621094 22.945312 22.957031 C 22.613281 23.285156 22.125 23.398438 21.675781 23.25 C 21.671875 23.25 21.671875 23.25 21.671875 23.25 L 19.988281 22.691406 C 19.671875 22.585938 19.324219 22.609375 19.027344 22.761719 C 18.585938 22.988281 18.128906 23.175781 17.65625 23.324219 C 17.332031 23.425781 17.0625 23.65625 16.910156 23.960938 L 16.117188 25.550781 C 15.90625 25.976562 15.480469 26.242188 15.007812 26.246094 C 14.53125 26.25 14.097656 25.980469 13.882812 25.550781 L 13.089844 23.96875 C 12.941406 23.664062 12.675781 23.4375 12.351562 23.335938 C 11.882812 23.183594 11.421875 22.996094 10.984375 22.765625 C 10.683594 22.609375 10.332031 22.582031 10.011719 22.6875 L 8.324219 23.25 C 7.875 23.398438 7.386719 23.285156 7.054688 22.957031 C 6.714844 22.621094 6.597656 22.128906 6.75 21.671875 C 6.75 21.671875 6.75 21.671875 6.75 21.667969 L 7.308594 19.988281 C 7.414062 19.667969 7.386719 19.320312 7.234375 19.023438 C 7.007812 18.585938 6.820312 18.125 6.671875 17.65625 C 6.570312 17.332031 6.34375 17.066406 6.042969 16.914062 L 4.449219 16.113281 C 4.449219 16.113281 4.445312 16.113281 4.445312 16.113281 C 4.023438 15.902344 3.753906 15.476562 3.753906 15.007812 C 3.75 14.53125 4.015625 14.097656 4.445312 13.882812 L 6.03125 13.089844 C 6.335938 12.941406 6.5625 12.675781 6.664062 12.351562 C 6.816406 11.882812 7.003906 11.425781 7.234375 10.984375 C 7.390625 10.6875 7.417969 10.335938 7.3125 10.015625 L 6.75 8.328125 C 6.75 8.328125 6.75 8.324219 6.75 8.324219 C 6.601562 7.875 6.710938 7.386719 7.039062 7.054688 C 7.375 6.714844 7.871094 6.597656 8.324219 6.746094 L 10.007812 7.308594 C 10.328125 7.414062 10.675781 7.390625 10.972656 7.234375 C 11.414062 7.011719 11.871094 6.824219 12.339844 6.675781 C 12.664062 6.574219 12.933594 6.347656 13.085938 6.042969 L 13.882812 4.445312 C 14.097656 4.015625 14.53125 3.75 15.007812 3.753906 Z M 15.003906 8.75 C 11.566406 8.75 8.746094 11.558594 8.746094 14.996094 C 8.746094 18.433594 11.566406 21.253906 15.003906 21.253906 C 18.441406 21.253906 21.25 18.433594 21.25 14.996094 C 21.25 11.558594 18.441406 8.75 15.003906 8.75 Z M 15.003906 11.25 C 17.089844 11.25 18.75 12.910156 18.75 14.996094 C 18.75 17.082031 17.089844 18.753906 15.003906 18.753906 C 12.917969 18.753906 11.246094 17.082031 11.246094 14.996094 C 11.246094 12.910156 12.917969 11.25 15.003906 11.25 Z M 15.003906 11.25 "/>
</g>
</svg>
