<?xml version="1.0" encoding="UTF-8"?>
<svg xmlns="http://www.w3.org/2000/svg" xmlns:xlink="http://www.w3.org/1999/xlink" width="30px" height="30px" viewBox="0 0 30 30" version="1.1">
<g id="surface1">
<path style=" stroke:none;fill-rule:nonzero;fill:#d26efb;fill-opacity:1;" d="M 3.125 20.722656 L 7.703125 20.722656 C 8.019531 20.722656 8.457031 20.902344 8.679688 21.125 L 13.929688 26.375 C 14.597656 27.046875 15.144531 26.820312 15.144531 25.871094 L 15.144531 4.125 C 15.144531 3.179688 14.597656 2.953125 13.929688 3.621094 L 8.679688 8.871094 C 8.457031 9.09375 8.019531 9.277344 7.703125 9.277344 L 3.125 9.277344 C 2.175781 9.277344 1.40625 10.046875 1.40625 10.992188 L 1.40625 19.003906 C 1.40625 19.953125 2.175781 20.722656 3.125 20.722656 Z M 3.125 20.722656 "/>
<path style=" stroke:none;fill-rule:evenodd;fill:#d26efb;fill-opacity:1;" d="M 26.300781 15 C 26.300781 12.414062 25.484375 9.890625 23.960938 7.792969 C 22.46875 5.734375 20.378906 4.171875 17.980469 3.320312 L 17.4375 3.128906 C 17.140625 3.023438 16.984375 2.695312 17.089844 2.398438 L 17.476562 1.316406 C 17.582031 1.019531 17.910156 0.863281 18.207031 0.972656 L 18.742188 1.160156 C 21.582031 2.167969 24.046875 4.011719 25.816406 6.449219 C 27.617188 8.933594 28.59375 11.925781 28.59375 15 C 28.59375 18.066406 27.617188 21.058594 25.816406 23.542969 C 24.046875 25.980469 21.582031 27.832031 18.742188 28.839844 L 18.207031 29.027344 C 17.910156 29.136719 17.582031 28.980469 17.476562 28.683594 L 17.089844 27.601562 C 16.984375 27.304688 17.140625 26.976562 17.4375 26.871094 L 17.980469 26.679688 C 20.378906 25.828125 22.46875 24.265625 23.960938 22.207031 C 25.484375 20.109375 26.300781 17.585938 26.300781 15 Z M 28.59375 15 Z M 28.59375 15 "/>
<path style=" stroke:none;fill-rule:nonzero;fill:#d26efb;fill-opacity:1;" d="M 17.851562 9.132812 L 17.335938 8.875 C 17.054688 8.734375 16.941406 8.390625 17.082031 8.109375 L 17.597656 7.082031 C 17.742188 6.800781 18.085938 6.6875 18.367188 6.828125 L 18.875 7.085938 C 20.367188 7.835938 21.636719 8.949219 22.578125 10.332031 C 23.503906 11.710938 24.007812 13.335938 24.011719 15 C 24.007812 16.664062 23.503906 18.285156 22.578125 19.664062 C 21.636719 21.042969 20.367188 22.160156 18.875 22.910156 L 18.367188 23.164062 C 18.085938 23.308594 17.742188 23.195312 17.597656 22.914062 L 17.082031 21.890625 C 16.941406 21.609375 17.054688 21.265625 17.335938 21.125 L 17.851562 20.867188 C 18.988281 20.292969 19.960938 19.433594 20.683594 18.382812 C 21.351562 17.378906 21.71875 16.207031 21.722656 15 C 21.71875 13.792969 21.351562 12.613281 20.683594 11.617188 C 19.960938 10.558594 18.988281 9.707031 17.851562 9.132812 Z M 17.851562 9.132812 "/>
</g>
</svg>
