<?xml version="1.0" encoding="UTF-8"?>
<svg xmlns="http://www.w3.org/2000/svg" xmlns:xlink="http://www.w3.org/1999/xlink" width="30px" height="30px" viewBox="0 0 30 30" version="1.1">
<g id="surface1">
<path style=" stroke:none;fill-rule:nonzero;fill:#d26efb;fill-opacity:1;" d="M 15.5 5.125 C 15.125 4.875 14.5 5 14.125 5.25 L 8.25 10 L 3.75 10 C 3 10 2.5 10.5 2.5 11.25 L 2.5 18.75 C 2.5 19.5 3 20 3.75 20 L 8.25 20 L 14.125 24.75 C 14.625 25.125 15.5 25.125 15.875 24.5 C 16 24.25 16.125 24 16.125 23.75 L 16.125 6.25 C 16.25 5.75 16 5.375 15.5 5.125 Z M 24.875 15 L 27.125 12.75 C 27.625 12.25 27.625 11.5 27.125 11 C 26.625 10.5 25.875 10.5 25.375 11 L 23.125 13.25 L 20.875 11 C 20.375 10.5 19.625 10.5 19.125 11 C 18.625 11.5 18.625 12.25 19.125 12.75 L 21.375 15 L 19.125 17.25 C 18.625 17.75 18.625 18.5 19.125 19 C 19.625 19.5 20.375 19.5 20.875 19 L 23.125 16.75 L 25.375 19 C 25.875 19.5 26.625 19.5 27.125 19 C 27.625 18.5 27.625 17.75 27.125 17.25 Z M 24.875 15 "/>
</g>
</svg>
